PathFileType	4	(X/Y/Z)	S01_0004_Gait_markers.trc
DataRate	CameraRate	NumFrames	NumMarkers	Units	OrigDataRate	OrigDataStartFrame	OrigNumFrames
250.000000	250.000000	4	54	mm	250.000000	120	320
Frame#	Time	HEAD_ANT			R_HEAD			L_HEAD			C7			R_BACK			L_BACK			STERNUM			R_ACROMION			R_HUM_PROX			R_HUM_ANT			R_HUM_POST			R_ELBOW_LAT			R_ELBOW_MED			R_FOREARM			R_WIRST_LAT			R_WRITS_MED			R_HAND			L_ACROMION			L_HUM_PROX			L_HUM_ANT			L_HUM_POST			L_ELBOW_LAT			L_ELBOW_MED			L_FOREARM			L_WRIST_LAT			L_WIRST_MED			L_HAND			R_ILIAC			SACRUM			L_ILIAC			R_GTROCH			R_THIGH__1			R_THIGH_2			R_THIGH_3			R_THIGH_4			R_SHANK_1			R_SHANK_2			R_SHANK_3			R_SHANK_4			R_HEEL			R_FOOT_LAT			R_FOOT_MED			L_GTROCH			L_THIGH_1			L_THIGH_2			L_THIGH_3			L_THIGH_4			L_SHANK_1			L_SHANK_2			L_SHANK_3			L_SHANK_4			L_HEEL			L_FOOT_LAT			L_FOOT_MED			
		X1	Y1	Z1	X2	Y2	Z2	X3	Y3	Z3	X4	Y4	Z4	X5	Y5	Z5	X6	Y6	Z6	X7	Y7	Z7	X8	Y8	Z8	X9	Y9	Z9	X10	Y10	Z10	X11	Y11	Z11	X12	Y12	Z12	X13	Y13	Z13	X14	Y14	Z14	X15	Y15	Z15	X16	Y16	Z16	X17	Y17	Z17	X18	Y18	Z18	X19	Y19	Z19	X20	Y20	Z20	X21	Y21	Z21	X22	Y22	Z22	X23	Y23	Z23	X24	Y24	Z24	X25	Y25	Z25	X26	Y26	Z26	X27	Y27	Z27	X28	Y28	Z28	X29	Y29	Z29	X30	Y30	Z30	X31	Y31	Z31	X32	Y32	Z32	X33	Y33	Z33	X34	Y34	Z34	X35	Y35	Z35	X36	Y36	Z36	X37	Y37	Z37	X38	Y38	Z38	X39	Y39	Z39	X40	Y40	Z40	X41	Y41	Z41	X42	Y42	Z42	X43	Y43	Z43	X44	Y44	Z44	X45	Y45	Z45	X46	Y46	Z46	X47	Y47	Z47	X48	Y48	Z48	X49	Y49	Z49	X50	Y50	Z50	X51	Y51	Z51	X52	Y52	Z52	X53	Y53	Z53	X54	Y54	Z54	

121	0.48	812.9531860351562	1731.87548828125	-322.8403930664059	756.35888671875	1681.887084960938	-243.7799835205074	755.318115234375	1680.255737304688	-391.5809936523434	619.6578979492188	1511.388061523438	-313.4462280273434	544.1665649414062	1315.995361328125	-246.919021606445	540.4879760742188	1320.394897460938	-384.8912048339841	791.7517700195312	1344.427490234375	-326.0465087890622	704.079833984375	1453.061889648438	-148.4620971679684	695.4043579101562	1291.218994140625	-58.82694625854464	768.1172485351562	1215.059692382812	-72.40352630615207	652.9341430664062	1199.940307617188	-35.52734374999974	716.74560546875	1101.140991210938	-44.92723464965796	669.4679565429688	1093.954223632812	-115.7828445434568	857.4808959960938	953.43603515625	-97.96449279785135	897.2760620117188	903.5751953125	-156.2837982177732	854.6009521484375	859.8458862304688	-101.5063323974608	942.83740234375	819.9459228515625	-116.0885925292967	690.37548828125	1470.269409179688	-487.2352600097653	644.5615234375	1307.021728515625	-583.9277343749997	698.9789428710938	1221.092041015625	-591.8389892578123	575.5869140625	1235.174682617188	-602.2660522460935	622.1137084960938	1127.183959960938	-617.8796386718748	581.1309814453125	1125.951416015625	-555.5710449218748	707.5676879882812	940.1849975585939	-622.535705566406	738.7755126953125	873.1138305664064	-577.4933471679685	682.835205078125	860.9513549804689	-634.3365478515623	749.50634765625	792.1577758789064	-630.7892456054685	691.08251953125	1060.038696289062	-158.2673187255857	563.084228515625	1033.195434570312	-329.6394348144529	678.1642456054688	1061.831420898438	-502.1351623535154	634.5836181640625	924.7498779296875	-148.6883850097654	599.0375366210938	656.1521606445312	-176.063766479492	657.8404541015625	657.6630859375	-172.7619628906249	635.5969848632812	558.8239135742188	-210.5083618164061	575.1034545898438	580.1868286132812	-199.0189971923827	497.5270080566406	355.2208862304688	-205.5345916748046	546.5205688476562	324.4026489257813	-223.6129150390624	523.1205444335938	244.2523803710938	-246.1296997070312	462.7711791992188	263.2014465332032	-233.1950531005859	375.3706970214844	71.37950134277351	-325.783935546875	530.7888793945312	19.8896102905274	-240.1300659179688	590.81494140625	29.10155677795418	-339.8485107421875	659.5325317382812	944.9497070312501	-513.9520874023435	846.7554931640625	696.2175903320314	-514.1480102539061	789.3435668945312	693.0089721679689	-528.6029052734374	815.5145874023438	593.6226196289064	-498.7789306640624	874.0849609375	620.0891723632814	-492.2158813476561	902.1135864257812	348.5281066894532	-494.1202697753906	849.589111328125	317.3823547363282	-490.5001220703124	863.7807006835938	232.3624877929689	-476.0311889648437	925.5465698242188	249.9247131347657	-475.3529357910156	870.7794799804688	38.68924713134775	-403.5319519042969	1042.598876953125	46.17223739624034	-484.3287353515625	1079.141235351562	75.14109039306649	-396.0463562011719	
122	0.484	818.5789184570312	1730.990478515625	-323.8022155761715	761.9642333984375	1681.056640625	-244.6062011718746	761.0579833984375	1679.04638671875	-392.1936340332027	625.2606811523438	1510.4150390625	-313.9199829101559	549.6837768554688	1315.271362304688	-247.404861450195	545.6314697265625	1319.539916992188	-385.2801818847653	797.8159790039062	1343.103759765625	-327.7838134765622	709.7073364257812	1452.125366210938	-148.8905639648434	701.2977294921875	1290.221435546875	-59.31039047241183	774.1141357421875	1214.21630859375	-73.28991699218723	658.9898071289062	1198.89013671875	-35.91451644897435	722.982666015625	1100.120971679688	-45.58815383911109	677.106689453125	1092.639404296875	-116.3463287353513	863.71142578125	952.7378540039062	-98.86709594726541	903.6676635742188	903.055419921875	-157.1056365966795	861.105224609375	859.1560668945312	-102.4013900756834	949.4451293945312	819.4139404296875	-116.9959487915037	695.7169799804688	1469.191650390625	-487.8214721679684	649.9270629882812	1305.735107421875	-584.2858886718747	704.3016967773438	1219.903198242188	-593.196838378906	581.0724487304688	1233.835693359375	-602.387268066406	627.6669921875	1125.90673828125	-617.9042968749998	586.38427734375	1124.677124023438	-555.612121582031	712.706787109375	938.7953491210939	-622.6179199218748	743.7667236328125	871.8527832031251	-577.689025878906	687.8733520507812	859.6701660156251	-634.5831909179685	754.4148559570312	790.7093505859376	-630.8743896484373	695.8238525390625	1059.137817382812	-158.8218994140623	568.4359741210938	1032.199462890625	-330.0790710449216	683.6138305664062	1060.77685546875	-502.5848388671873	639.6267700195312	924.3499145507812	-148.7972717285154	603.0187377929688	655.840087890625	-175.7345886230467	661.7704467773438	657.5321044921875	-173.8464508056639	639.3997802734375	558.4697265625	-210.4956512451171	578.8028564453125	579.8446655273438	-199.1643829345702	499.9142150878906	355.5227050781251	-205.5873260498046	548.7395629882812	324.3162536621094	-223.822525024414	524.7147216796875	244.2498931884766	-246.3730926513671	464.5149230957031	263.6022338867188	-233.2208251953124	375.6652526855469	72.48332214355476	-325.6748046875	530.7745971679688	19.98134613037115	-240.1587219238281	590.8779907226562	29.05193901062019	-339.7608032226562	664.9413452148438	943.8191528320314	-514.2243652343748	851.5675659179688	694.3466186523439	-514.1807250976561	793.8989868164062	691.3548583984376	-528.5875244140624	819.6033325195312	592.1520996093751	-498.3533325195311	878.673828125	618.6182250976564	-492.0495605468749	910.2186279296875	348.2937927246095	-493.5277404785156	858.35986328125	316.2766113281251	-490.3674011230468	874.6288452148438	231.1620941162111	-474.5946044921874	935.9757080078125	250.0432128906251	-474.9255981445312	885.8756103515625	38.03722763061533	-403.0425415039062	1057.36767578125	48.99639129638683	-484.0705871582031	1093.626098632812	78.38893127441415	-396.02294921875	
123	0.488	824.215087890625	1729.8603515625	-324.659271240234	767.6371459960938	1680.12890625	-245.3695678710934	766.4464111328125	1677.820434570312	-393.1619262695309	630.7699584960938	1509.430297851562	-314.4216308593747	554.9209594726562	1314.533081054688	-247.7194213867185	550.9564819335938	1318.676391601562	-385.6432495117185	802.5626831054688	1341.975952148438	-327.2752990722653	715.483154296875	1451.104370117188	-149.4281311035153	707.1732788085938	1289.19677734375	-60.07460784912081	780.077880859375	1213.203125	-74.03921508789035	664.9228515625	1197.844360351562	-36.47625350952122	729.0509643554688	1099.232421875	-46.14905929565406	683.0885009765625	1091.551635742188	-116.8236389160154	869.9644165039062	951.974853515625	-99.59884643554666	909.8602905273438	902.488037109375	-158.0120697021482	867.532470703125	858.4409790039062	-103.1849212646483	955.8988037109375	818.9683837890625	-117.9990234374998	701.34765625	1467.841186523438	-488.2878417968747	655.391845703125	1304.320556640625	-584.5581054687497	709.58984375	1218.872192382813	-593.6456909179685	586.5991821289062	1232.70263671875	-602.6295166015623	633.0105590820312	1124.592407226563	-618.1840820312498	589.8822021484375	1123.886596679688	-556.0512084960935	718.0946655273438	937.4793090820314	-622.9044799804685	749.0718383789062	870.2970581054689	-577.885559082031	692.9928588867188	858.4398803710939	-634.6765136718748	759.5179443359375	789.3596801757814	-630.859436035156	701.4571533203125	1058.327026367188	-159.2563018798826	573.9283447265625	1030.982299804688	-330.919494628906	689.5534057617188	1059.7265625	-503.0281066894529	644.5855712890625	923.824462890625	-149.0657653808592	607.11181640625	655.7435302734375	-175.787155151367	665.7721557617188	657.1467895507812	-174.0922241210936	643.1331787109375	558.1007690429688	-210.6605987548827	582.7257690429688	579.6881103515625	-199.2773590087889	502.4022521972656	355.9555664062501	-205.5034790039062	550.8474731445312	324.1774902343751	-224.1237030029296	526.4371948242188	244.5180053710938	-246.2200012207031	466.3256530761719	264.1322631835938	-233.1148376464843	375.9701232910156	73.45855712890632	-325.4503784179688	530.7706298828125	19.99236679077154	-240.1829223632812	590.7882080078125	28.89113998413093	-339.8344421386719	671.982666015625	942.6335449218751	-514.2799682617185	856.42919921875	692.5640869140626	-514.2031860351561	798.7073974609375	689.7425537109376	-528.9912719726561	824.3609008789062	590.5306396484376	-498.015167236328	883.196533203125	616.5742797851564	-491.7293090820311	918.3662109375	347.8631896972657	-492.9072265624999	867.2132568359375	314.9893798828126	-489.4311828613281	885.20751953125	230.3189697265626	-473.8410339355468	946.0198364257812	250.5176239013673	-474.9073486328124	900.315673828125	37.91224670410165	-401.9326477050781	1071.707275390625	51.34848403930675	-484.0899658203125	1107.622436523438	81.64997100830087	-395.9291076660156	
124	0.492	829.7459716796875	1728.785522460938	-325.6435546874996	773.3419799804688	1679.091430664062	-246.2337799072262	772.1383056640625	1676.6455078125	-393.8866577148434	636.4085693359375	1508.413208007812	-315.0159912109372	560.3947143554688	1313.657348632812	-248.2238159179685	556.365966796875	1317.766235351562	-385.9685058593747	808.8463134765625	1340.794921875	-328.5904541015622	721.1895751953125	1450.040161132812	-150.0380249023434	713.1452026367188	1288.251586914062	-60.53458023071261	786.0243530273438	1212.340087890625	-74.82183074951145	670.8666381835938	1196.668579101562	-37.06537246704075	735.142578125	1098.252563476562	-47.00116348266577	689.188720703125	1090.506225585938	-117.6144104003904	876.1582641601562	951.202392578125	-100.3906936645506	916.0511474609375	901.8499755859375	-158.7973327636717	873.8073120117188	857.664306640625	-104.1304702758787	962.3111572265625	818.3545532226562	-119.0006027221678	706.802001953125	1466.662719726562	-488.831390380859	660.7412109375	1303.1640625	-584.9435424804684	715.2714233398438	1217.447021484375	-592.8299560546873	591.9762573242188	1231.3447265625	-603.044250488281	638.2786254882812	1123.2470703125	-618.4490966796873	597.3416137695312	1122.092407226563	-555.9526367187498	723.2869262695312	936.2043457031251	-623.0217285156248	754.2738647460938	868.8445434570314	-578.005676269531	698.1992797851562	856.9525146484376	-634.7420654296873	764.47998046875	787.9226684570314	-630.7908935546873	706.7084350585938	1057.615966796875	-159.7403259277341	579.4373168945312	1029.959716796875	-331.4320678710935	694.7863159179688	1058.645263671875	-503.6432189941404	649.6937255859375	923.412353515625	-149.2785949707029	611.344970703125	655.2778930664062	-175.8768310546874	670.0772705078125	656.61474609375	-173.986358642578	646.9710083007812	557.651611328125	-210.5841369628905	586.6487426757812	579.4844970703125	-199.405303955078	504.8765869140625	356.1934204101563	-205.6462097167968	553.2169799804688	324.2372436523438	-224.1669311523437	528.0554809570312	244.707748413086	-246.3193359374999	468.1275329589844	264.6683349609376	-233.0607147216796	376.3346862792969	74.76230621337898	-325.2786254882812	530.760986328125	20.00611495971685	-240.2088317871094	590.8670043945312	28.99883270263679	-339.8743896484375	677.4862670898438	941.3905029296876	-514.7252197265623	860.9994506835938	690.8740844726564	-514.6145019531249	803.5858764648438	688.2443847656251	-528.7782592773436	828.61865234375	588.9627075195314	-497.448516845703	887.8172607421875	615.2466430664064	-491.6131591796874	926.4676513671875	347.6032714843751	-492.5502624511718	875.7506713867188	313.841766357422	-488.6102905273437	895.4485473632812	229.4319305419923	-473.0903930664062	956.0148315429688	250.5432128906251	-474.2698669433593	914.541015625	37.24935150146494	-401.5716247558594	1085.53271484375	53.80583572387706	-483.9527587890625	1121.10498046875	84.82025909423837	-395.8477172851562	
